<?xml version="1.0" encoding="utf-8"?>
<!-- Generator: Adobe Illustrator 16.0.4, SVG Export Plug-In . SVG Version: 6.00 Build 0)  -->
<!DOCTYPE svg PUBLIC "-//W3C//DTD SVG 1.1//EN" "http://www.w3.org/Graphics/SVG/1.1/DTD/svg11.dtd">
<svg version="1.1" id="Layer_1" xmlns="http://www.w3.org/2000/svg" xmlns:xlink="http://www.w3.org/1999/xlink" x="0px" y="0px"
	 width="159.731px" height="121.106px" viewBox="0 0 159.731 121.106" style="enable-background:new 0 0 159.731 121.106;"
	 xml:space="preserve">
<g>
	<g>
		<g>
			<polygon style="fill:#CC0000;" points="81.654,35.555 80.088,4.354 82.498,5.125 84.23,36.152 			"/>
			<polygon style="fill:#CC0000;" points="87.83,36.595 85.245,6.006 87.684,6.778 90.432,37.193 			"/>
			<path style="fill:#CC0000;" d="M98.575,21.341c12.481,2.442,20.888,8.546,21.042,16.675c0.132,6.99-5.866,13.349-15.389,18.109
				l-3.448-17.018l-4.138-2.752l-0.95-4.66c8.828,1.947,14.982,5.883,16.558,11.738c0.655-7.244-6.488-13.312-17.537-16.546
				l-4.43-21.727l-0.542-0.458l3.667,32.346l4.639,2.977l2.083,17.956c-5.825,2.403-12.637,4.265-19.986,5.42L76.764,0L63.562,6.996
				l-1.028,9.945l-5.579,3.206l-0.793,6.531c-21.737,5-36.485,16.944-36.266,28.505c0.182,9.604,11.191,16.549,26.941,18.452
				c-12.481-2.442-20.887-8.545-21.041-16.675c-0.165-8.684,9.135-16.391,22.897-21.271L43.985,61.59
				c-5.721-2.203-9.615-5.563-10.822-10.047C32.036,64.01,53.959,73.032,79.257,70.03c27.084-3.214,46.511-16.979,46.26-30.236
				C125.335,30.189,114.325,23.244,98.575,21.341z M58.184,64.482l0.385-33.785l6.941,2.064l0.107,31.922
				C63.041,64.726,60.556,64.659,58.184,64.482z M76.619,63.901c-2.538,0.313-5.024,0.53-7.447,0.659l-1.041-50.836l6.6,2.064
				l1.975,48.102C76.677,63.894,76.647,63.898,76.619,63.901z"/>
			<path d="M3.302,84.798H0.963C0.184,84.798,0,84.66,0,83.835v-2.476c0-0.826,0.184-0.963,0.963-0.963h10.99
				c0.779,0,0.963,0.137,0.963,0.963v2.476c0,0.825-0.184,0.963-0.963,0.963H9.477v22.069h6.49l0.826-3.532
				c0.137-0.597,0.183-0.826,0.55-0.826c0.229,0,0.459,0.092,0.688,0.138l3.027,0.643c0.642,0.138,0.826,0.229,0.826,0.597
				c0,0.184-0.046,0.413-0.092,0.597l-1.468,6.512c-0.137,0.688-0.321,0.825-1.009,0.825H0.963c-0.78,0-0.963-0.137-0.963-0.963
				v-2.476c0-0.825,0.184-0.963,0.963-0.963h2.339V84.798z"/>
			<path d="M32.959,108.029c-3.209,0-3.76-3.269-3.76-7.55s0.596-7.55,3.76-7.55s3.76,3.269,3.76,7.55
				C36.719,104.806,36.168,108.029,32.959,108.029z M42.894,100.479c0-7.412-3.796-12.135-9.935-12.135
				c-6.184,0-9.934,4.723-9.934,12.135s3.75,12.135,9.934,12.135C39.143,112.614,42.894,107.891,42.894,100.479z"/>
			<path d="M54.856,108.029c-3.209,0-3.76-3.269-3.76-7.55s0.596-7.55,3.76-7.55s3.76,3.269,3.76,7.55
				C58.616,104.806,58.065,108.029,54.856,108.029z M64.79,100.479c0-7.412-3.796-12.135-9.934-12.135
				c-6.184,0-9.935,4.723-9.935,12.135s3.75,12.135,9.935,12.135C61.04,112.614,64.79,107.891,64.79,100.479z"/>
			<path d="M73.944,94.678c0.644-0.599,1.746-1.749,3.676-1.749c2.849,0,3.722,2.624,3.722,7.365c0,5.433-0.827,7.734-4.044,7.734
				c-1.791,0-2.526-0.415-3.354-0.875V94.678z M76.931,117.481c0-0.506-0.092-0.644-0.643-0.644h-2.344v-5.415
				c0.965,0.504,2.114,1.191,4.778,1.191c5.957,0,8.427-4.493,8.427-12.536c0-7.745-2.836-11.733-7.922-11.733
				c-3.169,0-5.053,1.604-6.106,2.338c-0.274-0.85-0.274-1.538-1.234-1.538h-6.364c-0.55,0-0.642,0.138-0.642,0.643v2.983
				c0,0.505,0.092,0.642,0.642,0.642h2.155c0.458,0.507,0.458,1.472,0.458,4v19.426h-2.339c-0.55,0-0.642,0.138-0.642,0.644v2.982
				c0,0.504,0.092,0.643,0.642,0.643h10.49c0.551,0,0.643-0.139,0.643-0.643V117.481z"/>
			<path d="M112.652,110.856c0,0.826-0.138,0.963-0.96,0.963h-3.018c-0.641,0-0.777-0.091-1.052-0.642l-8.471-15.644
				c-1.381-2.522-1.842-3.624-2.716-6.239h-0.091c0,1.514,0.229,2.937,0.229,5.047v13.076h2.302c0.782,0,0.967,0.138,0.967,0.963
				v2.476c0,0.826-0.185,0.963-0.967,0.963H88.797c-0.779,0-0.963-0.137-0.963-0.963v-2.476c0-0.825,0.184-0.963,0.963-0.963h2.52
				v-22.62h-2.52c-0.779,0-0.963-0.138-0.963-0.963v-2.476c0-0.826,0.184-0.963,0.963-0.963h7.229c0.687,0,0.779,0.091,1.055,0.596
				l7.644,14.22c1.289,2.433,2.21,4.772,2.762,6.653h0.092c0-1.469-0.183-4.496-0.183-5.965V84.798h-2.303
				c-0.782,0-0.967-0.138-0.967-0.963v-2.476c0-0.826,0.185-0.963,0.967-0.963h9.899c0.779,0,0.963,0.137,0.963,0.963v2.476
				c0,0.825-0.184,0.963-0.963,0.963h-2.339V110.856z"/>
			<path d="M121.536,97.764c0.139-1.286,0.322-5.147,3.906-5.147c3.17,0,3.308,3.263,3.308,5.147H121.536z M133.872,102.032
				c0.87,0,1.053-0.275,1.053-1.146c0-5.557-1.373-12.536-9.161-12.536c-6.147,0-10.035,5.05-10.035,12.353
				c0,8.465,4.207,11.906,10.265,11.906c3.626,0,8.199-1.514,8.199-2.707c0-0.184-0.092-0.367-0.137-0.505l-1.144-2.758
				c-0.092-0.185-0.274-0.368-0.503-0.368c-0.641,0-2.516,1.521-5.818,1.521c-4.319,0-5.055-3.179-5.055-5.759H133.872z"/>
			<path d="M144.831,104.549c0,1.473,0,2.808,1.56,2.808c1.835,0,2.98-0.875,3.623-0.875c0.183,0,0.32,0.092,0.366,0.276
				l0.917,3.753c0.046,0.137,0.092,0.274,0.092,0.411c0,0.823-3.347,1.691-6.466,1.691c-5.899,0-5.899-4.617-5.899-8.848V93.412
				h-3.256c-0.551,0-0.643-0.137-0.643-0.642v-2.983c0-0.505,0.092-0.643,0.643-0.643h3.256v-5.778c0-0.596,0.092-0.733,0.731-0.825
				l4.024-0.55c0.138,0,0.32-0.046,0.595-0.046c0.412,0,0.457,0.229,0.457,0.78v6.42h5.229c0.458,0,0.825,0.092,0.825,0.459
				c0,0.184-0.046,0.275-0.092,0.459l-0.643,2.708c-0.137,0.597-0.412,0.642-0.871,0.642h-4.448V104.549z"/>
			<polygon style="fill:#CC0000;" points="73.338,26.261 72.989,17.722 70.466,17.045 70.656,25.658 			"/>
			<polygon style="fill:#CC0000;" points="70.713,28.264 70.908,37.142 73.792,37.548 73.444,28.882 			"/>
			<polygon style="fill:#CC0000;" points="60.929,45.58 60.852,54.497 63.72,54.809 63.739,46.21 			"/>
			<polygon style="fill:#CC0000;" points="63.745,43.776 63.764,35.028 61.026,34.291 60.95,43.15 			"/>
		</g>
	</g>
	<g>
		<path d="M155.931,87.857c-2.087,0-3.801-1.698-3.801-3.801c0-2.086,1.714-3.801,3.801-3.801c2.086,0,3.801,1.715,3.801,3.801
			C159.731,86.159,158.017,87.857,155.931,87.857z M159.165,84.057c0-1.779-1.456-3.235-3.234-3.235
			c-1.78,0-3.235,1.456-3.235,3.235c0,1.779,1.455,3.235,3.235,3.235C157.709,87.292,159.165,85.836,159.165,84.057z
			 M157.516,85.965h-0.81l-0.63-1.617h-0.857v1.617h-0.728v-4.011h1.343c0.76,0,1.633,0.129,1.633,1.294
			c0,0.711-0.438,0.857-0.695,0.987L157.516,85.965z M156.092,83.701c0.341,0,0.614-0.162,0.614-0.518
			c0-0.355-0.242-0.533-0.679-0.533h-0.809v1.051H156.092z"/>
	</g>
</g>
</svg>
